# xmcd
#
# Track frame offsets:
#	150
#	9935
#	21507
#	33665
#	44817
#	59692
#	82075
#	92900
#	105377
#	122317
#	134965
#	149565
#	160322
#	172257
#
# Disc length: 2481 seconds
#
# Revision: 2
# Processed by: cddbd v1.5.1PL0 Copyright (c) Steve Scherf et al.
# Submitted via: audiograbber 1.83.01
#
DISCID=d309af0e
DTITLE=BR5-49 - Big Backyard Beat Show
DYEAR=1998
DGENRE=Country
TTITLE0=There Goes My Love
TTITLE1=Wild One
TTITLE2=Hurtin' Song
TTITLE3=Out Of Habit
TTITLE4=Storybook Endings (If You Stop Believin')
TTITLE5=18 Wheels And A Crowbar
TTITLE6=Pain, Pain Go Away
TTITLE7=You Are Never Nice To Me
TTITLE8=Goodbye, Maria
TTITLE9=Seven Nights To Rock
TTITLE10=My Name Is Mudd
TTITLE11=You Flew The Coop
TTITLE12=Change The Way I Look
TTITLE13=Georgia On A Fast Train
EXTD=
EXTT0=
EXTT1=
EXTT2=
EXTT3=
EXTT4=
EXTT5=
EXTT6=
EXTT7=
EXTT8=
EXTT9=
EXTT10=
EXTT11=
EXTT12=
EXTT13=
PLAYORDER=
